<?xml version="1.0" standalone="no"?>
<!DOCTYPE svg PUBLIC "-//W3C//DTD SVG 20010904//EN"
 "http://www.w3.org/TR/2001/REC-SVG-20010904/DTD/svg10.dtd">
<svg version="1.0" xmlns="http://www.w3.org/2000/svg"
 width="500.000000pt" height="500.000000pt" viewBox="0 0 500.000000 500.000000"
 preserveAspectRatio="xMidYMid meet">

<g transform="translate(0.000000,500.000000) scale(0.100000,-0.100000)"
fill="#000000" stroke="none">
<path d="M0 2500 l0 -2500 2500 0 2500 0 0 2500 0 2500 -2500 0 -2500 0 0
-2500z m2810 1421 c0 -11 -12 -23 -30 -31 -39 -16 -66 -61 -79 -134 -7 -36
-11 -206 -11 -428 l0 -368 580 0 580 0 0 358 c0 456 -10 518 -88 567 -17 11
-31 28 -32 38 0 16 18 17 245 17 227 0 245 -1 245 -17 -1 -10 -15 -27 -32 -38
-44 -28 -66 -70 -78 -151 -13 -89 -13 -1613 0 -1712 11 -86 41 -146 82 -163
20 -8 28 -18 28 -35 l0 -24 -245 0 -245 0 0 23 c0 17 10 28 33 39 40 19 64 65
77 146 6 31 10 247 10 480 l0 422 -580 0 -580 0 0 -412 0 -413 60 -123 c113
-233 271 -428 394 -486 78 -37 178 -57 245 -49 43 5 53 3 49 -8 -7 -23 -96
-41 -203 -42 -81 0 -111 4 -158 22 -136 53 -290 188 -379 332 l-43 68 -167 1
c-168 0 -168 0 -168 23 1 14 13 29 33 42 18 11 40 36 50 56 40 83 50 345 17
453 l-21 66 -317 0 -317 0 -82 -215 c-46 -118 -83 -227 -83 -243 0 -39 39 -79
84 -87 87 -17 20 -25 -199 -25 -140 0 -235 4 -235 9 0 6 20 13 45 16 61 10
128 55 158 107 14 24 150 342 302 708 152 366 279 668 282 673 8 14 -111 123
-161 147 -66 31 -181 39 -258 16 -68 -19 -68 -19 -68 -2 0 8 31 23 78 37 61
19 99 24 187 24 108 0 113 -1 187 -38 155 -76 234 -203 375 -597 l58 -165 3
395 c4 540 -8 637 -85 685 -18 11 -32 28 -33 38 0 16 18 17 245 17 233 0 245
-1 245 -19z m-980 -2353 c13 -35 25 -69 27 -75 3 -7 -2 -13 -12 -13 -9 0 -19
9 -22 20 -4 14 -14 20 -33 20 -20 0 -31 -6 -35 -20 -3 -11 -13 -20 -21 -20
-18 0 -18 -3 12 79 34 93 53 94 84 9z m187 39 c8 -8 15 -32 15 -53 0 -50 -28
-74 -88 -74 l-44 0 0 68 c0 38 3 72 8 76 11 12 93 0 109 -17z m174 13 c23 -13
25 -52 4 -70 -13 -11 -12 -16 6 -41 19 -28 19 -29 2 -29 -10 0 -27 14 -36 30
-10 17 -25 30 -33 30 -9 0 -14 -11 -14 -30 0 -23 -4 -30 -20 -30 -18 0 -20 7
-20 68 0 38 3 72 7 75 10 11 82 8 104 -3z m99 -65 c0 -60 -3 -75 -15 -75 -12
0 -15 15 -15 75 0 60 3 75 15 75 12 0 15 -15 15 -75z m160 13 c13 -35 25 -69
27 -75 3 -7 -2 -13 -12 -13 -9 0 -19 9 -22 20 -4 14 -14 20 -33 20 -20 0 -31
-6 -35 -20 -3 -11 -13 -20 -21 -20 -18 0 -18 -3 12 79 34 93 53 94 84 9z m139
10 l30 -52 3 49 c2 27 8 50 16 53 9 3 12 -16 12 -72 0 -66 -2 -76 -17 -76 -11
0 -30 21 -48 53 l-30 52 -3 -52 c-5 -81 -22 -63 -22 22 0 93 16 99 59 23z
m-1419 -218 c0 -28 3 -30 35 -30 32 0 35 2 35 30 0 20 5 30 15 30 12 0 15 -15
15 -75 0 -60 -3 -75 -15 -75 -10 0 -15 10 -15 30 0 28 -3 30 -35 30 -32 0 -35
-2 -35 -30 0 -20 -5 -30 -15 -30 -12 0 -15 15 -15 75 0 60 3 75 15 75 10 0 15
-10 15 -30z m263 15 c1 -5 -17 -11 -40 -13 -29 -2 -43 -8 -43 -18 0 -10 12
-14 40 -14 29 0 40 -4 40 -15 0 -11 -11 -15 -40 -15 -33 0 -40 -3 -40 -20 0
-17 7 -20 45 -20 25 0 45 -4 45 -10 0 -6 -27 -10 -60 -10 l-60 0 0 75 0 76 55
-3 c30 -2 56 -7 58 -13z m167 -5 c20 -20 20 -22 4 -49 -15 -26 -15 -30 1 -54
17 -26 17 -27 -1 -27 -11 0 -27 14 -36 30 -23 40 -48 40 -48 0 0 -20 -5 -30
-15 -30 -12 0 -15 15 -15 75 l0 75 45 0 c32 0 51 -6 65 -20z m129 -32 l30 -52
3 49 c2 27 8 50 16 53 9 3 12 -16 12 -72 0 -66 -2 -76 -17 -76 -11 0 -30 21
-48 53 l-30 52 -3 -52 c-5 -81 -22 -63 -22 22 0 93 16 99 59 23z m223 -23 c17
-46 23 -71 15 -74 -6 -2 -17 6 -25 18 -18 27 -58 28 -67 1 -6 -20 -35 -29 -35
-10 0 5 8 31 18 57 11 26 22 56 25 66 14 37 41 13 69 -58z m137 23 l31 -53 0
53 c0 39 4 52 15 52 12 0 15 -15 15 -75 0 -68 -2 -75 -19 -75 -13 0 -29 17
-48 52 l-28 52 -3 -52 c-2 -37 -7 -52 -18 -52 -11 0 -14 15 -14 68 0 38 3 72
7 75 16 16 33 3 62 -45z m228 29 c8 -8 15 -32 15 -53 0 -50 -28 -74 -88 -74
l-44 0 0 68 c0 38 3 72 8 76 11 12 93 0 109 -17z m183 8 c0 -11 -12 -15 -45
-15 -33 0 -45 -4 -45 -15 0 -11 11 -15 40 -15 29 0 40 -4 40 -15 0 -11 -11
-15 -41 -15 -33 0 -40 -3 -37 -17 2 -13 15 -19 46 -21 64 -5 50 -22 -18 -22
l-60 0 0 75 0 75 60 0 c47 0 60 -3 60 -15z m154 6 c4 -5 -12 -32 -34 -60 -22
-28 -40 -53 -40 -56 0 -3 18 -5 40 -5 22 0 40 -4 40 -10 0 -6 -27 -10 -60 -10
-38 0 -60 4 -60 11 0 7 16 31 35 55 19 23 35 45 35 48 0 3 -13 6 -30 6 -20 0
-30 5 -30 15 0 11 12 15 49 15 28 0 52 -4 55 -9z"/>
<path d="M1947 2905 c-81 -206 -147 -379 -147 -385 0 -6 101 -10 285 -10 157
0 285 2 285 4 0 1 -45 137 -100 301 -95 280 -154 440 -170 458 -4 4 -73 -161
-153 -368z"/>
<path d="M1780 1583 c0 -6 -3 -18 -6 -27 -4 -12 0 -16 15 -16 12 0 21 4 21 8
0 13 -29 48 -30 35z"/>
<path d="M1940 1550 c0 -52 7 -58 41 -40 24 13 27 75 3 84 -37 14 -44 7 -44
-44z"/>
<path d="M2120 1579 c0 -16 5 -20 27 -17 17 2 29 10 31 21 3 13 -3 17 -27 17
-25 0 -31 -4 -31 -21z"/>
<path d="M2400 1583 c0 -6 -3 -18 -6 -27 -4 -12 0 -16 15 -16 12 0 21 4 21 8
0 13 -29 48 -30 35z"/>
<path d="M1520 1339 c0 -16 5 -20 27 -17 17 2 29 10 31 21 3 13 -3 17 -27 17
-25 0 -31 -4 -31 -21z"/>
<path d="M1896 1334 c-10 -26 -7 -34 13 -34 14 0 18 5 14 20 -7 27 -20 34 -27
14z"/>
<path d="M2240 1310 c0 -52 7 -58 41 -40 24 13 27 75 3 84 -37 14 -44 7 -44
-44z"/>
</g>
</svg>
